<?xml version="1.0" encoding="UTF-8" standalone="no"?>
<!-- Created with Inkscape (http://www.inkscape.org/) -->

<svg
   xmlns:dc="http://purl.org/dc/elements/1.1/"
   xmlns:cc="http://creativecommons.org/ns#"
   xmlns:rdf="http://www.w3.org/1999/02/22-rdf-syntax-ns#"
   xmlns:svg="http://www.w3.org/2000/svg"
   xmlns="http://www.w3.org/2000/svg"
   xmlns:xlink="http://www.w3.org/1999/xlink"
   xmlns:sodipodi="http://sodipodi.sourceforge.net/DTD/sodipodi-0.dtd"
   xmlns:inkscape="http://www.inkscape.org/namespaces/inkscape"
   width="112.00657mm"
   height="108.02831mm"
   viewBox="0 0 112.00657 108.02831"
   version="1.1"
   id="svg3247"
   inkscape:version="0.92.3 (2405546, 2018-03-11)"
   sodipodi:docname="clock_front_face.svg">
  <defs
     id="defs3241">
    <linearGradient
       inkscape:collect="always"
       xlink:href="#linearGradient1051"
       id="linearGradient1053"
       x1="117.92857"
       y1="179.82738"
       x2="159.50595"
       y2="143.54167"
       gradientUnits="userSpaceOnUse"
       gradientTransform="matrix(0.47252479,0,0,0.47252479,-268.78649,-153.14426)" />
    <linearGradient
       inkscape:collect="always"
       id="linearGradient1051">
      <stop
         style="stop-color:#2c5a29;stop-opacity:1"
         offset="0"
         id="stop1047" />
      <stop
         style="stop-color:#4e864e;stop-opacity:1"
         offset="1"
         id="stop1049" />
    </linearGradient>
    <linearGradient
       inkscape:collect="always"
       xlink:href="#linearGradient1063"
       id="linearGradient1057"
       gradientUnits="userSpaceOnUse"
       gradientTransform="matrix(0.47252479,0,0,0.47252479,-268.78648,-150.7819)"
       x1="59.3447"
       y1="130.23573"
       x2="236.87653"
       y2="129.21544"
       spreadMethod="pad" />
    <linearGradient
       id="linearGradient1063"
       inkscape:collect="always">
      <stop
         id="stop1059"
         offset="0"
         style="stop-color:#1b3719;stop-opacity:1" />
      <stop
         style="stop-color:#76bb71;stop-opacity:1"
         offset="0.05793392"
         id="stop1065" />
      <stop
         id="stop1067"
         offset="0.08206955"
         style="stop-color:#294b27;stop-opacity:1" />
      <stop
         style="stop-color:#86be83;stop-opacity:1"
         offset="0.13824525"
         id="stop1069" />
      <stop
         id="stop1071"
         offset="0.16927812"
         style="stop-color:#253d23;stop-opacity:1" />
      <stop
         style="stop-color:#274226;stop-opacity:1;"
         offset="0.23565741"
         id="stop1073" />
      <stop
         id="stop1075"
         offset="0.25854605"
         style="stop-color:#538c51;stop-opacity:1" />
      <stop
         style="stop-color:#274226;stop-opacity:1"
         offset="0.29309377"
         id="stop1077" />
      <stop
         id="stop1079"
         offset="0.38507777"
         style="stop-color:#2a4829;stop-opacity:1;" />
      <stop
         style="stop-color:#5a9c57;stop-opacity:1"
         offset="0.42533931"
         id="stop1081" />
      <stop
         id="stop1083"
         offset="0.49433562"
         style="stop-color:#2e502d;stop-opacity:1" />
      <stop
         id="stop1061"
         offset="1"
         style="stop-color:#1d321d;stop-opacity:1" />
    </linearGradient>
    <radialGradient
       inkscape:collect="always"
       xlink:href="#linearGradient834"
       id="radialGradient842"
       gradientUnits="userSpaceOnUse"
       gradientTransform="matrix(-0.87890047,0.86444856,-0.8912594,-0.81723237,58.052868,-182.76508)"
       cx="170.84523"
       cy="86.845238"
       fx="170.84523"
       fy="86.845238"
       r="87.3125" />
    <linearGradient
       inkscape:collect="always"
       id="linearGradient834">
      <stop
         style="stop-color:#8e928d;stop-opacity:1"
         offset="0"
         id="stop830" />
      <stop
         style="stop-color:#161912;stop-opacity:1"
         offset="1"
         id="stop832" />
    </linearGradient>
    <linearGradient
       inkscape:collect="always"
       xlink:href="#linearGradient850"
       id="linearGradient844"
       x1="67.279762"
       y1="143.54166"
       x2="200.32738"
       y2="143.54167"
       gradientUnits="userSpaceOnUse"
       spreadMethod="reflect"
       gradientTransform="matrix(0.63775981,0,0,0.60565781,-278.46298,-156.70302)" />
    <linearGradient
       id="linearGradient850"
       inkscape:collect="always">
      <stop
         id="stop846"
         offset="0"
         style="stop-color:#b9bbb8;stop-opacity:1" />
      <stop
         id="stop848"
         offset="1"
         style="stop-color:#161912;stop-opacity:1" />
    </linearGradient>
  </defs>
  <sodipodi:namedview
     id="base"
     pagecolor="#ffffff"
     bordercolor="#666666"
     borderopacity="1.0"
     inkscape:pageopacity="0.0"
     inkscape:pageshadow="2"
     inkscape:zoom="0.7"
     inkscape:cx="387.53303"
     inkscape:cy="10.63522"
     inkscape:document-units="mm"
     inkscape:current-layer="layer1"
     showgrid="false"
     fit-margin-top="0"
     fit-margin-left="0"
     fit-margin-right="0"
     fit-margin-bottom="0"
     inkscape:window-width="1680"
     inkscape:window-height="987"
     inkscape:window-x="-8"
     inkscape:window-y="-8"
     inkscape:window-maximized="1" />
  <metadata
     id="metadata3244">
    <rdf:RDF>
      <cc:Work
         rdf:about="">
        <dc:format>image/svg+xml</dc:format>
        <dc:type
           rdf:resource="http://purl.org/dc/dcmitype/StillImage" />
        <dc:title />
      </cc:Work>
    </rdf:RDF>
  </metadata>
  <g
     inkscape:label="Layer 1"
     inkscape:groupmode="layer"
     id="layer1"
     transform="translate(257.08661,127.43082)">
    <ellipse
       style="display:inline;opacity:1;fill:url(#linearGradient844);fill-opacity:1;stroke:none;stroke-width:0.06215016;stroke-miterlimit:4;stroke-dasharray:none;stroke-dashoffset:0;stroke-opacity:1"
       id="path817"
       cx="-201.08333"
       cy="-72.284019"
       rx="55.684406"
       ry="52.881508" />
    <ellipse
       cy="-74.230431"
       cx="-201.08333"
       id="circle840"
       style="display:inline;opacity:1;fill:url(#radialGradient842);fill-opacity:1;stroke:#4b4d49;stroke-width:0.6377598;stroke-miterlimit:4;stroke-dasharray:none;stroke-dashoffset:0;stroke-opacity:1"
       rx="55.684406"
       ry="52.881508" />
    <g
       aria-label="١٢"
       style="font-style:normal;font-variant:normal;font-weight:normal;font-stretch:normal;font-size:16.72559929px;line-height:1.25;font-family:Safeer;-inkscape-font-specification:Safeer;letter-spacing:0px;word-spacing:0px;display:inline;fill:#171a06;fill-opacity:1;stroke:none;stroke-width:0.08711249"
       id="text854">
      <path
         d="m -204.54767,-116.88731 q 0,0.73501 -0.11434,1.70686 -0.0245,0.23684 -0.22867,1.70686 h -0.27767 q 0,-0.196 0.0327,-1.13519 0,-1.73136 -0.47367,-3.23405 -0.36751,-1.16785 -1.01269,-2.19686 -0.32667,-0.52268 -0.93101,-1.25769 l 0.78401,-1.76403 q 0.64518,0.77585 1.03718,1.43736 0.55535,0.93918 0.84118,1.98453 0.34301,1.24135 0.34301,2.75221 z"
         style="fill:#171a06;fill-opacity:1;stroke-width:0.08711249"
         id="path1017" />
      <path
         d="m -194.69035,-121.75472 q 0,0.89835 -0.42467,1.43735 -0.46551,0.58801 -1.31486,0.58801 -0.10616,0 -0.5635,-0.0653 0.31033,0.65334 0.441,1.03718 0.22051,0.64518 0.33484,1.51086 0.11434,0.86568 0.11434,2.31937 0,0.25317 -0.0163,0.83301 -0.0163,0.57168 -0.0163,0.62068 h -0.245 q -0.62068,-2.63788 -0.82485,-3.33205 -0.39201,-1.35569 -0.93102,-2.36021 -0.53084,-1.01268 -1.60069,-2.35203 l 0.53901,-1.6497 q 0.54718,0.77585 0.97185,1.15152 0.77585,0.68601 1.64153,0.68601 0.91468,0 1.26585,-0.61251 0.196,-0.33484 0.30217,-1.20868 l 0.26134,-0.0163 q 0.0327,0.28584 0.049,0.66968 0.0163,0.37567 0.0163,0.74318 z"
         style="fill:#171a06;fill-opacity:1;stroke-width:0.08711249"
         id="path1019" />
    </g>
    <g
       aria-label="١٢"
       style="font-style:normal;font-variant:normal;font-weight:normal;font-stretch:normal;font-size:16.72559929px;line-height:1.25;font-family:Safeer;-inkscape-font-specification:Safeer;letter-spacing:0px;word-spacing:0px;display:inline;fill:#a3a93d;fill-opacity:1;stroke:none;stroke-width:0.08711249"
       id="text862">
      <path
         d="m -204.54767,-117.93263 q 0,0.73501 -0.11434,1.70686 -0.0245,0.23684 -0.22867,1.70686 h -0.27767 q 0,-0.196 0.0327,-1.13518 0,-1.73136 -0.47367,-3.23406 -0.36751,-1.16785 -1.01269,-2.19686 -0.32667,-0.52268 -0.93101,-1.25769 l 0.78401,-1.76403 q 0.64518,0.77585 1.03718,1.43736 0.55535,0.93918 0.84118,1.98453 0.34301,1.24135 0.34301,2.75221 z"
         style="fill:#a3a93d;fill-opacity:1;stroke-width:0.08711249"
         id="path1012" />
      <path
         d="m -194.69035,-122.80004 q 0,0.89835 -0.42467,1.43736 -0.46551,0.588 -1.31486,0.588 -0.10616,0 -0.5635,-0.0653 0.31033,0.65334 0.441,1.03718 0.22051,0.64518 0.33484,1.51086 0.11434,0.86568 0.11434,2.31937 0,0.25317 -0.0163,0.83301 -0.0163,0.57168 -0.0163,0.62068 h -0.245 q -0.62068,-2.63787 -0.82485,-3.33205 -0.39201,-1.35569 -0.93102,-2.36021 -0.53084,-1.01268 -1.60069,-2.35203 l 0.53901,-1.6497 q 0.54718,0.77585 0.97185,1.15152 0.77585,0.68601 1.64153,0.68601 0.91468,0 1.26585,-0.61251 0.196,-0.33484 0.30217,-1.20868 l 0.26134,-0.0163 q 0.0327,0.28584 0.049,0.66968 0.0163,0.37567 0.0163,0.74318 z"
         style="fill:#a3a93d;fill-opacity:1;stroke-width:0.08711249"
         id="path1014" />
    </g>
    <g
       aria-label="٣"
       style="font-style:normal;font-variant:normal;font-weight:normal;font-stretch:normal;font-size:16.72559929px;line-height:1.25;font-family:Safeer;-inkscape-font-specification:Safeer;letter-spacing:0px;word-spacing:0px;display:inline;fill:#171a06;fill-opacity:1;stroke:none;stroke-width:0.08711249"
       id="text866">
      <path
         d="m -147.28556,-76.335903 q 0,1.020849 -0.39201,1.559858 -0.38384,0.539009 -1.19235,0.539009 -0.46551,0 -0.80852,-0.147003 -0.343,-0.147002 -0.50634,-0.449174 -0.27767,0.457341 -0.70234,0.694178 -0.42467,0.22867 -1.02085,0.22867 0.30217,0.596177 0.43284,0.914682 0.23684,0.579842 0.35934,1.233186 0.13067,0.653344 0.13067,1.576192 0,0.514508 -0.049,0.996349 -0.0408,0.473674 -0.23684,1.723194 h -0.32667 q 0,-1.796695 -0.22867,-2.948214 -0.22867,-1.151518 -0.78402,-2.237702 -0.42467,-0.824846 -1.49452,-2.401038 l 0.59618,-1.935531 q 0.42467,0.702345 0.91468,1.061684 0.54717,0.400173 1.21685,0.400173 0.69418,0 1.08619,-0.473674 0.33483,-0.40834 0.4655,-1.159686 h 0.26134 q 0.0653,0.751346 0.294,1.053517 0.22867,0.302172 0.65335,0.302172 0.85751,0 1.02085,-1.355689 h 0.2695 q 0,0.17967 0.0163,0.481841 0.0245,0.294005 0.0245,0.343006 z"
         style="fill:#171a06;fill-opacity:1;stroke-width:0.08711249"
         id="path1009" />
    </g>
    <g
       aria-label="٣"
       style="font-style:normal;font-variant:normal;font-weight:normal;font-stretch:normal;font-size:16.72559929px;line-height:1.25;font-family:Safeer;-inkscape-font-specification:Safeer;letter-spacing:0px;word-spacing:0px;display:inline;fill:#a3a93d;fill-opacity:1;stroke:none;stroke-width:0.08711249"
       id="text870">
      <path
         d="m -147.28556,-77.348354 q 0,1.020849 -0.39201,1.559858 -0.38384,0.539008 -1.19235,0.539008 -0.46551,0 -0.80852,-0.147002 -0.343,-0.147002 -0.50634,-0.449174 -0.27767,0.457341 -0.70234,0.694178 -0.42467,0.22867 -1.02085,0.22867 0.30217,0.596176 0.43284,0.914682 0.23684,0.579842 0.35934,1.233186 0.13067,0.653344 0.13067,1.576192 0,0.514508 -0.049,0.996349 -0.0408,0.473674 -0.23684,1.723194 h -0.32667 q 0,-1.796695 -0.22867,-2.948214 -0.22867,-1.151518 -0.78402,-2.237702 -0.42467,-0.824846 -1.49452,-2.401038 l 0.59618,-1.935531 q 0.42467,0.702345 0.91468,1.061684 0.54717,0.400173 1.21685,0.400173 0.69418,0 1.08619,-0.473675 0.33483,-0.408339 0.4655,-1.159685 h 0.26134 q 0.0653,0.751346 0.294,1.053517 0.22867,0.302172 0.65335,0.302172 0.85751,0 1.02085,-1.355689 h 0.2695 q 0,0.17967 0.0163,0.481841 0.0245,0.294005 0.0245,0.343006 z"
         style="fill:#a3a93d;fill-opacity:1;stroke-width:0.08711249"
         id="path1006" />
    </g>
    <g
       aria-label="٦"
       style="font-style:normal;font-variant:normal;font-weight:normal;font-stretch:normal;font-size:16.72559929px;line-height:1.25;font-family:Safeer;-inkscape-font-specification:Safeer;letter-spacing:0px;word-spacing:0px;display:inline;fill:#171a06;fill-opacity:1;stroke:none;stroke-width:0.08711249"
       id="text874">
      <path
         d="m -198.41033,-26.275303 -0.31033,1.86203 q -0.53085,-0.351172 -0.80035,-0.653344 -0.45734,-0.498174 -0.69418,-1.241353 -0.294,-0.906514 -0.294,-2.237702 0,-0.473674 0.0408,-0.971849 0.008,-0.138835 0.17967,-1.625192 -0.39201,0.0735 -0.57984,0.106168 -0.60434,0.114335 -0.98818,0.114335 -1.27402,0 -1.66603,-0.261337 -0.31034,-0.20417 -0.31034,-0.84118 0,-0.269505 0.0245,-0.808513 0.0245,-0.539009 0.0245,-0.81668 l 0.29401,-0.03267 q 0.196,0.449174 0.37567,0.596176 0.37567,0.302172 1.24135,0.302172 0.64518,0 1.45369,-0.15517 0.17967,-0.03267 0.87385,-0.187836 -0.13884,0.84118 -0.196,1.257687 -0.098,0.710511 -0.098,1.241353 0,1.314854 0.22868,2.213202 0.17966,0.710511 0.55534,1.29852 0.13067,0.20417 0.64517,0.84118 z"
         style="fill:#171a06;fill-opacity:1;stroke-width:0.08711249"
         id="path1003" />
    </g>
    <g
       aria-label="٦"
       style="font-style:normal;font-variant:normal;font-weight:normal;font-stretch:normal;font-size:16.72559929px;line-height:1.25;font-family:Safeer;-inkscape-font-specification:Safeer;letter-spacing:0px;word-spacing:0px;display:inline;fill:#a3a93d;fill-opacity:1;stroke:none;stroke-width:0.08711249"
       id="text878">
      <path
         d="m -198.41033,-27.320675 -0.31033,1.86203 q -0.53085,-0.351172 -0.80035,-0.653344 -0.45734,-0.498174 -0.69418,-1.241353 -0.294,-0.906514 -0.294,-2.237702 0,-0.473674 0.0408,-0.971849 0.008,-0.138835 0.17967,-1.625192 -0.39201,0.0735 -0.57984,0.106168 -0.60434,0.114335 -0.98818,0.114335 -1.27402,0 -1.66603,-0.261337 -0.31034,-0.20417 -0.31034,-0.84118 0,-0.269505 0.0245,-0.808513 0.0245,-0.539009 0.0245,-0.81668 l 0.29401,-0.03267 q 0.196,0.449174 0.37567,0.596176 0.37567,0.302172 1.24135,0.302172 0.64518,0 1.45369,-0.15517 0.17967,-0.03267 0.87385,-0.187836 -0.13884,0.84118 -0.196,1.257687 -0.098,0.710511 -0.098,1.241353 0,1.314854 0.22868,2.213202 0.17966,0.710511 0.55534,1.29852 0.13067,0.20417 0.64517,0.84118 z"
         style="fill:#a3a93d;fill-opacity:1;stroke-width:0.08711249"
         id="path1000" />
    </g>
    <g
       aria-label="٩"
       style="font-style:normal;font-variant:normal;font-weight:normal;font-stretch:normal;font-size:16.72559929px;line-height:1.25;font-family:Safeer;-inkscape-font-specification:Safeer;letter-spacing:0px;word-spacing:0px;display:inline;fill:#171a06;fill-opacity:1;stroke:none;stroke-width:0.08711249"
       id="text882">
      <path
         d="m -249.18768,-69.189978 -0.49817,1.739528 q -0.81668,-0.498175 -1.07802,-1.674194 -0.21234,-0.963682 -0.21234,-3.421887 -0.55534,0.196003 -0.83301,0.25317 -0.27767,0.05717 -0.54718,0.05717 -0.89018,0 -1.42102,-0.367506 -0.52267,-0.367506 -0.52267,-1.053517 0,-0.506341 0.245,-1.24952 0.31034,-0.947348 0.83301,-1.527191 0.66968,-0.743178 1.57619,-0.743178 0.67785,0 1.02902,0.710511 0.28584,0.571676 0.37567,1.706861 0.0572,0.702344 0.0572,2.074366 0.16334,1.878363 0.44101,2.637875 0.1225,0.334839 0.55534,0.857514 z m -1.85386,-4.785743 q 0,-0.743178 -0.18784,-1.127018 -0.25317,-0.522675 -0.90651,-0.522675 -0.49001,0 -0.94735,0.367506 -0.45734,0.367506 -0.45734,0.686011 0,0.343005 0.40017,0.530842 0.40017,0.187836 0.97185,0.187836 0.245,0 0.59618,-0.049 0.35117,-0.049 0.53084,-0.0735 z"
         style="fill:#171a06;fill-opacity:1;stroke-width:0.08711249"
         id="path997" />
    </g>
    <g
       aria-label="٩"
       style="font-style:normal;font-variant:normal;font-weight:normal;font-stretch:normal;font-size:16.72559929px;line-height:1.25;font-family:Safeer;-inkscape-font-specification:Safeer;letter-spacing:0px;word-spacing:0px;display:inline;fill:#a3a93d;fill-opacity:1;stroke:none;stroke-width:0.08711249"
       id="text886">
      <path
         d="m -249.18768,-70.202406 -0.49817,1.739527 q -0.81668,-0.498174 -1.07802,-1.674193 -0.21234,-0.963682 -0.21234,-3.421888 -0.55534,0.196003 -0.83301,0.253171 -0.27767,0.05717 -0.54718,0.05717 -0.89018,0 -1.42102,-0.367506 -0.52267,-0.367506 -0.52267,-1.053517 0,-0.506341 0.245,-1.24952 0.31034,-0.947348 0.83301,-1.527191 0.66968,-0.743178 1.57619,-0.743178 0.67785,0 1.02902,0.710511 0.28584,0.571676 0.37567,1.70686 0.0572,0.702345 0.0572,2.074367 0.16334,1.878363 0.44101,2.637875 0.1225,0.334839 0.55534,0.857514 z m -1.85386,-4.785743 q 0,-0.743179 -0.18784,-1.127018 -0.25317,-0.522675 -0.90651,-0.522675 -0.49001,0 -0.94735,0.367506 -0.45734,0.367506 -0.45734,0.686011 0,0.343005 0.40017,0.530841 0.40017,0.187837 0.97185,0.187837 0.245,0 0.59618,-0.049 0.35117,-0.049 0.53084,-0.0735 z"
         style="fill:#a3a93d;fill-opacity:1;stroke-width:0.08711249"
         id="path994" />
    </g>
    <g
       aria-label="-"
       transform="rotate(-60)"
       style="font-style:normal;font-variant:normal;font-weight:normal;font-stretch:normal;font-size:16.72559929px;line-height:1.25;font-family:Safeer;-inkscape-font-specification:Safeer;letter-spacing:0px;word-spacing:0px;display:inline;fill:#171a06;fill-opacity:1;stroke:none;stroke-width:0.08711249"
       id="text894">
      <path
         d="m 15.429619,-207.45203 h -5.096081 v -1.47819 h 5.096081 z"
         style="fill:#171a06;fill-opacity:1;stroke-width:0.08711249"
         id="path991" />
    </g>
    <g
       aria-label="-"
       transform="rotate(-60)"
       style="font-style:normal;font-variant:normal;font-weight:normal;font-stretch:normal;font-size:16.72559929px;line-height:1.25;font-family:Safeer;-inkscape-font-specification:Safeer;letter-spacing:0px;word-spacing:0px;display:inline;fill:#a3a93d;fill-opacity:1;stroke:none;stroke-width:0.08711249"
       id="text898">
      <path
         d="m 16.306415,-207.95824 h -5.096081 v -1.47819 h 5.096081 z"
         style="fill:#a3a93d;fill-opacity:1;stroke-width:0.08711249"
         id="path988" />
    </g>
    <g
       aria-label="-"
       transform="rotate(-30)"
       style="font-style:normal;font-variant:normal;font-weight:normal;font-stretch:normal;font-size:16.72559929px;line-height:1.25;font-family:Safeer;-inkscape-font-specification:Safeer;letter-spacing:0px;word-spacing:0px;display:inline;fill:#171a06;fill-opacity:1;stroke:none;stroke-width:0.08711249"
       id="text902">
      <path
         d="m -84.512004,-158.00299 h -5.096081 v -1.47819 h 5.096081 z"
         style="fill:#171a06;fill-opacity:1;stroke-width:0.08711249"
         id="path985" />
    </g>
    <g
       aria-label="-"
       transform="rotate(-30)"
       style="font-style:normal;font-variant:normal;font-weight:normal;font-stretch:normal;font-size:16.72559929px;line-height:1.25;font-family:Safeer;-inkscape-font-specification:Safeer;letter-spacing:0px;word-spacing:0px;display:inline;fill:#a3a93d;fill-opacity:1;stroke:none;stroke-width:0.08711249"
       id="text906">
      <path
         d="m -84.005778,-158.87978 h -5.096082 v -1.47819 h 5.096082 z"
         style="fill:#a3a93d;fill-opacity:1;stroke-width:0.08711249"
         id="path982" />
    </g>
    <g
       aria-label="-"
       transform="matrix(0.5,0.8660254,0.8660254,-0.5,0,0)"
       style="font-style:normal;font-variant:normal;font-weight:normal;font-stretch:normal;font-size:16.72559929px;line-height:1.25;font-family:Safeer;-inkscape-font-specification:Safeer;letter-spacing:0px;word-spacing:0px;display:inline;fill:#171a06;fill-opacity:1;stroke:none;stroke-width:0.08711249"
       id="text910">
      <path
         d="m -114.22304,-136.49399 h -5.09608 v -1.47819 h 5.09608 z"
         style="fill:#171a06;fill-opacity:1;stroke-width:0.08711249"
         id="path979" />
    </g>
    <g
       aria-label="-"
       transform="matrix(0.5,0.8660254,0.8660254,-0.5,0,0)"
       style="font-style:normal;font-variant:normal;font-weight:normal;font-stretch:normal;font-size:16.72559929px;line-height:1.25;font-family:Safeer;-inkscape-font-specification:Safeer;letter-spacing:0px;word-spacing:0px;display:inline;fill:#a3a93d;fill-opacity:1;stroke:none;stroke-width:0.08711249"
       id="text914">
      <path
         d="m -115.09983,-135.98776 h -5.09608 v -1.47819 h 5.09608 z"
         style="fill:#a3a93d;fill-opacity:1;stroke-width:0.08711249"
         id="path976" />
    </g>
    <g
       aria-label="-"
       transform="matrix(0.8660254,0.5,0.5,-0.8660254,0,0)"
       style="font-style:normal;font-variant:normal;font-weight:normal;font-stretch:normal;font-size:16.72559929px;line-height:1.25;font-family:Safeer;-inkscape-font-specification:Safeer;letter-spacing:0px;word-spacing:0px;display:inline;fill:#171a06;fill-opacity:1;stroke:none;stroke-width:0.08711249"
       id="text918">
      <path
         d="m -157.62744,-32.713283 h -5.09608 v -1.47819 h 5.09608 z"
         style="fill:#171a06;fill-opacity:1;stroke-width:0.08711249"
         id="path973" />
    </g>
    <g
       aria-label="-"
       transform="matrix(0.8660254,0.5,0.5,-0.8660254,0,0)"
       style="font-style:normal;font-variant:normal;font-weight:normal;font-stretch:normal;font-size:16.72559929px;line-height:1.25;font-family:Safeer;-inkscape-font-specification:Safeer;letter-spacing:0px;word-spacing:0px;display:inline;fill:#a3a93d;fill-opacity:1;stroke:none;stroke-width:0.08711249"
       id="text922">
      <path
         d="m -158.13365,-31.836467 h -5.09608 v -1.47819 h 5.09608 z"
         style="fill:#a3a93d;fill-opacity:1;stroke-width:0.08711249"
         id="path970" />
    </g>
    <g
       aria-label="-"
       transform="matrix(-0.5,-0.8660254,-0.8660254,0.5,0,0)"
       style="font-style:normal;font-variant:normal;font-weight:normal;font-stretch:normal;font-size:16.72559929px;line-height:1.25;font-family:Safeer;-inkscape-font-specification:Safeer;letter-spacing:0px;word-spacing:0px;display:inline;fill:#171a06;fill-opacity:1;stroke:none;stroke-width:0.08711249"
       id="text926">
      <path
         d="m 216.8716,141.45569 h -5.09608 v -1.47819 h 5.09608 z"
         style="fill:#171a06;fill-opacity:1;stroke-width:0.08711249"
         id="path967" />
    </g>
    <g
       aria-label="-"
       transform="matrix(-0.5,-0.8660254,-0.8660254,0.5,0,0)"
       style="font-style:normal;font-variant:normal;font-weight:normal;font-stretch:normal;font-size:16.72559929px;line-height:1.25;font-family:Safeer;-inkscape-font-specification:Safeer;letter-spacing:0px;word-spacing:0px;display:inline;fill:#a3a93d;fill-opacity:1;stroke:none;stroke-width:0.08711249"
       id="text930">
      <path
         d="m 217.74839,140.94949 h -5.09608 v -1.47819 h 5.09608 z"
         style="fill:#a3a93d;fill-opacity:1;stroke-width:0.08711249"
         id="path964" />
    </g>
    <g
       aria-label="-"
       transform="matrix(-0.8660254,-0.5,-0.5,0.8660254,0,0)"
       style="font-style:normal;font-variant:normal;font-weight:normal;font-stretch:normal;font-size:16.72559929px;line-height:1.25;font-family:Safeer;-inkscape-font-specification:Safeer;letter-spacing:0px;word-spacing:0px;display:inline;fill:#171a06;fill-opacity:1;stroke:none;stroke-width:0.08711249"
       id="text934">
      <path
         d="m 264.39577,43.439023 h -5.09608 v -1.47819 h 5.09608 z"
         style="fill:#171a06;fill-opacity:1;stroke-width:0.08711249"
         id="path961" />
    </g>
    <g
       aria-label="-"
       transform="matrix(-0.8660254,-0.5,-0.5,0.8660254,0,0)"
       style="font-style:normal;font-variant:normal;font-weight:normal;font-stretch:normal;font-size:16.72559929px;line-height:1.25;font-family:Safeer;-inkscape-font-specification:Safeer;letter-spacing:0px;word-spacing:0px;display:inline;fill:#a3a93d;fill-opacity:1;stroke:none;stroke-width:0.08711249"
       id="text938">
      <path
         d="m 264.902,42.562222 h -5.09608 v -1.47819 h 5.09608 z"
         style="fill:#a3a93d;fill-opacity:1;stroke-width:0.08711249"
         id="path958" />
    </g>
    <g
       aria-label="-"
       transform="rotate(120)"
       style="font-style:normal;font-variant:normal;font-weight:normal;font-stretch:normal;font-size:16.72559929px;line-height:1.25;font-family:Safeer;-inkscape-font-specification:Safeer;letter-spacing:0px;word-spacing:0px;display:inline;fill:#171a06;fill-opacity:1;stroke:none;stroke-width:0.08711249"
       id="text942">
      <path
         d="m 87.219014,212.41371 h -5.096081 v -1.47819 h 5.096081 z"
         style="fill:#171a06;fill-opacity:1;stroke-width:0.08711249"
         id="path955" />
    </g>
    <g
       aria-label="-"
       transform="rotate(120)"
       style="font-style:normal;font-variant:normal;font-weight:normal;font-stretch:normal;font-size:16.72559929px;line-height:1.25;font-family:Safeer;-inkscape-font-specification:Safeer;letter-spacing:0px;word-spacing:0px;display:inline;fill:#a3a93d;fill-opacity:1;stroke:none;stroke-width:0.08711249"
       id="text946">
      <path
         d="m 86.342206,212.91995 h -5.096081 v -1.47819 h 5.096081 z"
         style="fill:#a3a93d;fill-opacity:1;stroke-width:0.08711249"
         id="path952" />
    </g>
    <g
       aria-label="-"
       transform="rotate(150)"
       style="font-style:normal;font-variant:normal;font-weight:normal;font-stretch:normal;font-size:16.72559929px;line-height:1.25;font-family:Safeer;-inkscape-font-specification:Safeer;letter-spacing:0px;word-spacing:0px;display:inline;fill:#171a06;fill-opacity:1;stroke:none;stroke-width:0.08711249"
       id="text950">
      <path
         d="m 191.28032,168.72868 h -5.09608 v -1.47819 h 5.09608 z"
         style="fill:#171a06;fill-opacity:1;stroke-width:0.08711249"
         id="path949" />
    </g>
    <g
       aria-label="-"
       transform="rotate(150)"
       style="font-style:normal;font-variant:normal;font-weight:normal;font-stretch:normal;font-size:16.72559929px;line-height:1.25;font-family:Safeer;-inkscape-font-specification:Safeer;letter-spacing:0px;word-spacing:0px;display:inline;fill:#a3a93d;fill-opacity:1;stroke:none;stroke-width:0.08711249"
       id="text954">
      <path
         d="m 190.7741,169.6055 h -5.09608 v -1.47819 h 5.09608 z"
         style="fill:#a3a93d;fill-opacity:1;stroke-width:0.08711249"
         id="path946" />
    </g>
    <path
       inkscape:transform-center-y="-0.71408978"
       inkscape:transform-center-x="0.71440567"
       inkscape:connector-curvature="0"
       id="path1055"
       d="m -226.02002,-108.95507 c -0.15693,0.009 -0.30431,0.0825 -0.4642,0.22929 -0.27827,0.25556 -0.94597,0.45379 -3.24496,0.96379 -0.50528,0.11209 -2.85776,0.72894 -3.10309,0.81362 -0.15785,0.0545 0.0235,0.39416 0.56455,1.05805 0.0841,0.10314 0.5831,0.76515 1.10908,1.47121 1.05238,1.41267 1.05798,1.46307 0.20926,1.86581 -0.26895,0.12762 -0.59836,0.46085 -0.86074,0.871 -0.25891,0.40473 -0.53382,0.68457 -0.7035,0.7157 -1.46002,0.26807 -1.82651,0.3282 -2.03625,0.33428 -0.14809,0.004 -0.53479,0.37615 -0.99284,0.955016 -0.88044,1.112631 -1.65633,1.624621 -2.17397,1.43434 -0.8006,-0.29429 -2.2108,-0.677391 -2.54831,-0.692261 -0.35636,-0.01569 -0.38114,0.02 -0.67932,0.983822 -0.6086,1.967148 -0.82993,2.811798 -0.75624,2.885508 0.0348,0.0349 0.28133,0.0963 0.54771,0.13674 0.85142,0.12919 1.47992,1.043799 3.49671,5.0888 0.81862,1.64184 1.57269,3.01472 1.67584,3.050831 0.41924,0.146661 0.62511,0.4495 0.62511,0.91935 0,0.36698 0.0699,0.523539 0.30132,0.67518 0.28945,0.18965 0.64104,0.809619 1.19138,2.100461 0.30109,0.706228 0.31852,1.05496 0.0691,1.384519 -0.16127,0.21309 -0.14456,0.306671 0.1553,0.875171 0.59723,1.132268 0.74076,1.283848 1.36547,1.441159 0.46861,0.11799 0.78592,0.34142 1.57377,1.108109 1.0627,1.034161 1.016,0.953251 2.77491,4.826791 l 0.33527,0.738169 -0.20439,1.303922 c -0.18782,1.196859 -0.18811,1.344769 -0.005,1.80331 0.14126,0.352978 0.17577,0.68053 0.11795,1.11642 -0.0997,0.751298 0.1563,1.51583 0.8124,2.4262 1.11505,1.547188 1.5166,1.937848 1.99181,1.937848 0.40853,0 0.87322,0.33609 1.6961,1.227021 0.27403,0.29668 0.68437,0.617411 0.91203,0.712539 0.2436,0.101772 0.47188,0.317111 0.55478,0.52328 0.0775,0.192662 0.19033,0.476742 0.25053,0.631462 0.0602,0.15471 0.16055,0.407879 0.22318,0.5626 0.0626,0.15471 0.3245,0.843899 0.58189,1.531509 0.2574,0.687631 0.65633,1.546709 0.8864,1.90904 0.23007,0.362331 0.41828,0.683691 0.41828,0.713991 0,0.0303 0.21826,0.400489 0.48521,0.822669 0.329,0.52033 0.8223,1.035881 1.5315,1.6011 0.72313,0.576291 1.05917,0.92978 1.08808,1.144241 0.023,0.170648 0.0933,0.363709 0.15629,0.42904 0.063,0.0653 0.11452,0.195818 0.11452,0.290089 0,0.0943 0.25055,0.52251 0.55673,0.951579 0.098,0.137322 0.19307,0.279821 0.28375,0.419751 -0.16314,0.21517 -0.14894,0.336161 -0.0859,0.61535 0.0711,0.315081 0.0435,0.698111 -0.0872,1.20823 -0.2404,0.93839 -0.13537,1.94182 0.28252,2.69798 0.21617,0.39111 0.28387,0.662861 0.23368,0.937681 -0.0432,0.236479 0.029,0.67388 0.18559,1.125188 0.14089,0.40613 0.25615,1.014921 0.25615,1.35278 0,0.479552 0.0831,0.73506 0.37922,1.165482 0.34087,0.495459 0.37666,0.63727 0.35285,1.39795 -0.0247,0.79153 0.006,0.898729 0.47396,1.651428 0.43688,0.702893 0.57835,0.832332 1.11617,1.021652 0.66428,0.233849 1.92903,0.30702 2.1222,0.12283 0.0653,-0.0622 0.33555,-0.23305 0.6002,-0.379711 0.40093,-0.222168 0.60112,-0.25313 1.2004,-0.18533 0.69731,0.079 0.72741,0.0699 0.98943,-0.298141 0.15003,-0.210698 0.43355,-0.415549 0.63733,-0.460288 0.20192,-0.0443 0.58489,-0.29193 0.85098,-0.550161 0.60901,-0.591029 0.72105,-0.63183 2.09168,-0.763799 0.61886,-0.0596 1.49089,-0.16773 1.93785,-0.240271 1.09465,-0.177681 3.21694,-0.93554 3.61563,-1.291259 1.18322,-1.05564 1.31393,-1.113142 2.80102,-1.231651 1.22821,-0.0979 1.45747,-0.15376 1.89609,-0.46078 0.27444,-0.19208 0.5627,-0.476859 0.64051,-0.632921 0.4731,-0.94897 1.13614,-1.27685 5.58644,-2.76148 2.91127,-0.971208 3.48463,-1.20578 4.37577,-1.79011 0.56403,-0.36984 1.21352,-0.781118 1.44337,-0.91399 0.38978,-0.225268 0.41345,-0.27564 0.34968,-0.748649 -0.0549,-0.407 0.0106,-0.66631 0.33209,-1.31273 0.38836,-0.780949 0.4342,-0.822769 1.4944,-1.368171 0.0522,-0.0268 0.097,-0.0528 0.14725,-0.0796 0.0606,0.049 0.12109,0.0796 0.17044,0.0796 0.35196,0 1.30138,-0.403299 2.2272,-0.94597 1.00145,-0.58701 1.27679,-0.662879 2.86256,-0.790908 0.61886,-0.0499 1.21016,-0.130551 1.31396,-0.179002 0.30344,-0.14161 0.74953,-1.106508 0.74916,-1.62016 -2.7e-4,-0.56347 0.52836,-1.670169 0.84096,-1.760069 0.12176,-0.035 0.84035,-0.214209 1.59673,-0.398269 1.67068,-0.406511 1.87647,-0.590881 2.0089,-1.799381 0.0793,-0.723691 0.14343,-0.864021 0.63463,-1.389171 0.49345,-0.52754 0.68663,-0.62937 1.99523,-1.05242 l 1.44897,-0.468598 -0.10572,-0.580181 c -0.0583,-0.31917 -0.10597,-1.311799 -0.10597,-2.20571 v -1.625301 l 0.56259,-0.910809 c 0.60113,-0.97327 0.93493,-1.130451 1.18601,-0.558189 0.21872,0.498538 0.51368,0.33175 0.9262,-0.523542 0.21347,-0.442608 0.38824,-0.832178 0.38824,-0.865878 0,-0.175432 0.92193,-2.029441 1.04438,-2.10022 0.39712,-0.229521 0.68624,-0.617202 1.01068,-1.354971 0.19654,-0.446961 0.49282,-1.11103 0.65831,-1.475851 0.20247,-0.446339 0.2884,-0.834859 0.26276,-1.18771 -0.037,-0.509939 -0.0518,-0.526229 -0.53819,-0.58702 -0.64727,-0.0809 -0.72378,-0.13757 -1.68683,-1.25022 -0.44636,-0.51571 -0.87814,-1.007628 -0.95941,-1.09321 -0.0813,-0.0856 -0.25156,-0.2877 -0.37847,-0.449059 -0.37563,-0.47752 -0.65654,-0.55385 -2.0741,-0.563819 -1.75054,-0.0123 -2.13574,-0.0758 -3.09015,-0.508641 -0.10315,-0.0468 -0.52143,-0.19486 -0.92937,-0.329149 -0.65489,-0.215591 -0.83049,-0.35106 -1.50026,-1.156962 -0.15365,-0.184838 -0.30955,-0.385038 -0.45785,-0.581139 l 0.21244,-0.212439 c 0.27707,-0.27708 0.30372,-0.364911 0.18094,-0.594352 -0.0793,-0.14804 -0.18977,-0.240779 -0.2459,-0.20609 -0.0561,0.0346 -0.19883,-0.0438 -0.31695,-0.174339 -0.20454,-0.22602 -0.19987,-0.246901 0.0952,-0.440269 0.38608,-0.252982 0.32398,-0.559991 -0.17069,-0.843902 -0.24317,-0.139549 -0.36824,-0.31101 -0.36824,-0.504978 0,-0.256752 -0.10724,-0.19045 -0.8522,0.52696 -0.48675,0.46877 -1.08184,1.21362 -1.38744,1.736889 -0.29429,0.50387 -0.91351,1.29522 -1.37598,1.7586 -0.62897,0.630219 -0.88068,0.98547 -0.99944,1.409669 -0.12296,0.439131 -0.29018,0.66626 -0.7411,1.006292 -0.3203,0.241499 -0.75117,0.522319 -0.95745,0.624128 -0.36808,0.181671 -3.00606,0.473652 -4.26468,0.47175 -0.44966,-5.29e-4 -0.89391,0.114591 -1.49855,0.388752 -0.47263,0.214299 -1.09646,0.42527 -1.38648,0.468839 l -0.0149,0.003 c -0.80206,-0.892781 -1.14937,-1.378342 -1.14937,-1.593062 0,-0.173288 -0.0784,-0.267869 -0.22221,-0.267869 -0.12223,0 -0.3453,-0.0862 -0.49593,-0.191691 -0.2182,-0.15281 -0.25838,-0.270229 -0.19706,-0.576749 0.0109,-0.0546 0.0194,-0.0993 0.0261,-0.139189 0.15077,-0.125931 0.28091,-0.298511 0.40413,-0.5284 0.30944,-0.577381 0.27285,-1.097592 -0.1387,-1.971802 -0.23035,-0.489328 -0.26517,-0.714809 -0.19583,-1.269759 0.0748,-0.59858 0.0526,-0.70408 -0.19681,-0.93644 -0.15463,-0.14405 -0.3467,-0.262001 -0.42684,-0.262001 -0.63486,0 -1.38427,1.883042 -1.26878,3.18806 0.0341,0.385151 0.14191,0.95427 0.24662,1.322991 -0.50974,-0.542539 -1.15284,-1.545781 -1.34276,-2.199119 -0.15085,-0.51894 -0.2835,-0.715452 -0.61461,-0.91082 -0.29913,-0.17648 -0.48783,-0.426241 -0.64685,-0.85634 -0.12346,-0.33396 -0.2656,-0.663551 -0.31597,-0.732322 -0.0865,-0.118059 -0.15769,-0.68898 -0.12869,-1.031428 0.007,-0.086 0.0976,-0.156281 0.20072,-0.156281 0.30089,0 0.21733,-0.37056 -0.18753,-0.831681 -0.2304,-0.262419 -0.37506,-0.565599 -0.37506,-0.786029 0,-0.292309 -0.10266,-0.419029 -0.55431,-0.68371 -0.30493,-0.178721 -0.67448,-0.49357 -0.82118,-0.69959 -0.1467,-0.206031 -0.36736,-0.374571 -0.49032,-0.374571 -0.12936,0 -0.45492,-0.317809 -0.7726,-0.754038 -0.36318,-0.498721 -0.72918,-0.840992 -1.08075,-1.01118 -0.46289,-0.22407 -0.5316,-0.309631 -0.5316,-0.661982 0,-0.273709 -0.10461,-0.50287 -0.3233,-0.70789 -0.2843,-0.266528 -0.60286,-0.842039 -0.84024,-1.5176 -0.0496,-0.141329 -0.2084,-0.195408 -0.80653,-0.22684 -0.10908,-0.25504 -0.30217,-0.66656 -0.5316,-1.123738 -0.61516,-1.225841 -0.63403,-1.248032 -1.06659,-1.248032 -0.79007,0 -0.68963,-0.803368 0.14115,-1.129348 0.46746,-0.183411 0.5029,-0.28431 0.27176,-0.774041 -0.22763,-0.482359 -0.72455,-0.722065 -1.49758,-0.722065 -0.57758,0 -0.72247,0.0501 -0.99284,0.343806 -0.17409,0.189098 -0.44465,0.668158 -0.60119,1.064408 -0.15652,0.396222 -0.47402,0.958821 -0.70569,1.250212 -0.0957,0.120359 -0.18016,0.23341 -0.25127,0.33282 -1.57681,-0.12409 -3.61106,-0.232 -4.94619,-0.236601 -0.66595,-0.003 -1.36049,-0.061 -1.54347,-0.130649 -0.26936,-0.102402 -1.29354,-0.84338 -1.55912,-1.12813 -0.0344,-0.0368 -0.5126,-0.42876 -1.06269,-0.87076 -0.55011,-0.441981 -1.02829,-0.833656 -1.06269,-0.870516 -0.0344,-0.0368 -0.3438,-0.29012 -0.68763,-0.56285 -0.34381,-0.27272 -0.65321,-0.52904 -0.68761,-0.56944 -0.0344,-0.0404 -0.48446,-0.40594 -1.00017,-0.8124 -0.51572,-0.40644 -1.41668,-1.13616 -2.00231,-1.62162 -0.58564,-0.48546 -1.28888,-1.01943 -1.56278,-1.18674 -0.27389,-0.16731 -0.51672,-0.34889 -0.53964,-0.40339 -0.0229,-0.0545 -0.0912,-0.0991 -0.15189,-0.0991 -0.0606,0 -0.59048,-0.30961 -1.17721,-0.6881 -0.58673,-0.37851 -1.70406,-1.01553 -2.48311,-1.41554 -1.46064,-0.74997 -1.91135,-0.90021 -3.9658,-1.32323 -0.0552,-0.0114 -0.1086,-0.0158 -0.16091,-0.013 z m 54.17612,34.318086 0.0206,0.0269 -0.0206,7.94e-4 z"
       style="display:inline;fill:url(#linearGradient1057);fill-opacity:1;stroke-width:0.12502217" />
    <path
       style="display:inline;fill:url(#linearGradient1053);fill-opacity:1;stroke-width:0.12502217"
       d="m -226.02002,-111.31745 c -0.15693,0.009 -0.30431,0.0825 -0.4642,0.22929 -0.27827,0.25558 -0.94597,0.4538 -3.24497,0.9638 -0.50528,0.11208 -2.85775,0.72894 -3.10309,0.81363 -0.15784,0.0545 0.0235,0.39417 0.56455,1.05804 0.0841,0.10315 0.58311,0.76516 1.10909,1.47122 1.05238,1.41266 1.05797,1.46307 0.20926,1.8658 -0.26895,0.12763 -0.59837,0.46084 -0.86074,0.87101 -0.25891,0.40474 -0.53383,0.68457 -0.7035,0.7157 -1.46003,0.26807 -1.82651,0.32819 -2.03625,0.33429 -0.14809,0.004 -0.53479,0.37614 -0.99285,0.955 -0.88043,1.11263 -1.65633,1.62462 -2.17397,1.43433 -0.8006,-0.29428 -2.2108,-0.67736 -2.5483,-0.69225 -0.35636,-0.0157 -0.38115,0.02 -0.67933,0.98381 -0.60859,1.967155 -0.82993,2.811827 -0.75623,2.885527 0.0348,0.0349 0.28133,0.0963 0.54771,0.136728 0.85142,0.129202 1.47991,1.043821 3.49671,5.088811 0.81862,1.641851 1.57269,3.014721 1.67583,3.050831 0.41924,0.146659 0.62511,0.449498 0.62511,0.919329 0,0.366991 0.0699,0.52356 0.30133,0.67519 0.28944,0.189659 0.64104,0.80962 1.19137,2.100469 0.30109,0.706231 0.31853,1.05495 0.0691,1.384531 -0.16127,0.213071 -0.14456,0.30666 0.15529,0.875149 0.59724,1.132281 0.74077,1.283851 1.36549,1.44118 0.4686,0.117972 0.78591,0.341402 1.57376,1.108091 1.0627,1.034171 1.016,0.953259 2.77491,4.826799 l 0.33527,0.738161 -0.20438,1.30394 c -0.18782,1.19684 -0.18811,1.344761 -0.005,1.8033 0.14125,0.35297 0.17576,0.68054 0.11794,1.116409 -0.0997,0.751311 0.1563,1.51584 0.8124,2.4262 1.11505,1.547191 1.5166,1.937851 1.99181,1.937851 0.40853,0 0.87322,0.3361 1.6961,1.227029 0.27403,0.29668 0.68437,0.61741 0.91203,0.712531 0.2436,0.10178 0.47188,0.317111 0.55478,0.523269 0.0775,0.19268 0.19033,0.476761 0.25054,0.631481 0.0602,0.154699 0.16055,0.407871 0.22318,0.562589 0.0626,0.15472 0.32449,0.843902 0.58189,1.53153 0.25739,0.68762 0.65633,1.546691 0.88639,1.909022 0.23008,0.362338 0.41828,0.683709 0.41828,0.713999 0,0.0303 0.21826,0.400489 0.48521,0.822671 0.329,0.52033 0.8223,1.035889 1.5315,1.601089 0.72313,0.5763 1.05917,0.929781 1.08808,1.14426 0.023,0.170651 0.0933,0.363709 0.15629,0.42903 0.063,0.0653 0.11452,0.19582 0.11452,0.290081 0,0.0943 0.25055,0.52251 0.55673,0.95159 0.098,0.137318 0.19307,0.27982 0.28375,0.419748 -0.16314,0.215162 -0.14894,0.336161 -0.0859,0.615352 0.0711,0.315068 0.0435,0.698108 -0.0872,1.20822 -0.2404,0.9384 -0.13537,1.941819 0.28252,2.69799 0.21617,0.391118 0.28387,0.662858 0.23368,0.937671 -0.0432,0.236479 0.029,0.673888 0.18558,1.125209 0.14089,0.406119 0.25615,1.01491 0.25615,1.35277 0,0.479549 0.0831,0.73507 0.37922,1.165479 0.34087,0.49544 0.37666,0.63728 0.35285,1.397949 -0.0247,0.791531 0.006,0.898711 0.47397,1.651442 0.43687,0.702869 0.57834,0.832319 1.11616,1.021639 0.66428,0.233852 1.92903,0.307011 2.1222,0.12284 0.0653,-0.0622 0.33555,-0.233069 0.60021,-0.379719 0.40093,-0.22216 0.60112,-0.25314 1.2004,-0.18533 0.69731,0.0789 0.72741,0.0698 0.98943,-0.298141 0.15003,-0.210701 0.43355,-0.415541 0.63732,-0.460308 0.20192,-0.0443 0.58489,-0.291921 0.85098,-0.550141 0.60902,-0.591031 0.72106,-0.631841 2.09168,-0.763809 0.61886,-0.0596 1.49089,-0.167722 1.93785,-0.240261 1.09465,-0.177681 3.21694,-0.93555 3.61563,-1.291251 1.18323,-1.055661 1.31393,-1.11315 2.80103,-1.231659 1.22821,-0.0979 1.45747,-0.15376 1.89609,-0.460791 0.27444,-0.192069 0.56269,-0.476861 0.64051,-0.63292 0.4731,-0.948981 1.13614,-1.276839 5.58644,-2.761469 2.91127,-0.971212 3.48463,-1.205781 4.37577,-1.79011 0.56402,-0.36984 1.21352,-0.78113 1.44337,-0.91399 0.38977,-0.22528 0.41344,-0.275641 0.34967,-0.74866 -0.0549,-0.40699 0.0106,-0.6663 0.33209,-1.31273 0.38836,-0.78095 0.4342,-0.82278 1.4944,-1.368161 0.0522,-0.0268 0.097,-0.0528 0.14725,-0.0797 0.0606,0.049 0.1211,0.0797 0.17044,0.0797 0.35196,0 1.30138,-0.403309 2.2272,-0.94597 1.00145,-0.58701 1.27679,-0.662879 2.86256,-0.790919 0.61887,-0.0499 1.21016,-0.13054 1.31396,-0.17898 0.30344,-0.141631 0.74953,-1.106522 0.74916,-1.62016 -2.7e-4,-0.56347 0.52837,-1.670182 0.84096,-1.76008 0.12176,-0.035 0.84035,-0.214212 1.59673,-0.398272 1.67069,-0.406519 1.87647,-0.590878 2.0089,-1.799378 0.0793,-0.723691 0.14343,-0.864031 0.63463,-1.389182 0.49346,-0.527539 0.68663,-0.629369 1.99523,-1.052419 l 1.44898,-0.468591 -0.10573,-0.580178 c -0.0583,-0.319162 -0.10597,-1.311802 -0.10597,-2.20572 v -1.625291 l 0.56259,-0.910809 c 0.60113,-0.973281 0.93494,-1.130472 1.18601,-0.558202 0.21872,0.498541 0.51368,0.331761 0.9262,-0.523529 0.21347,-0.442611 0.38825,-0.83218 0.38825,-0.86588 0,-0.17543 0.92192,-2.029439 1.04437,-2.100221 0.39713,-0.229539 0.68625,-0.617198 1.01068,-1.354978 0.19654,-0.44695 0.49284,-1.111031 0.65832,-1.475852 0.20247,-0.446338 0.28839,-0.83485 0.26276,-1.187719 -0.037,-0.509929 -0.0518,-0.52622 -0.53819,-0.58701 -0.64726,-0.0809 -0.72378,-0.13756 -1.68683,-1.25022 -0.44636,-0.51571 -0.87814,-1.007631 -0.9594,-1.0932 -0.0813,-0.0856 -0.25156,-0.287711 -0.37848,-0.44907 -0.37563,-0.477509 -0.65653,-0.553849 -2.0741,-0.563821 -1.75054,-0.0123 -2.13573,-0.0758 -3.09015,-0.50863 -0.10315,-0.0468 -0.52142,-0.19486 -0.92936,-0.32916 -0.6549,-0.215588 -0.83049,-0.35106 -1.50026,-1.156938 -0.15365,-0.184862 -0.30955,-0.385062 -0.45785,-0.58116 l 0.21243,-0.212442 c 0.27708,-0.277069 0.30373,-0.364919 0.18095,-0.594329 -0.0793,-0.14806 -0.18977,-0.240781 -0.2459,-0.20611 -0.0561,0.0346 -0.19883,-0.0438 -0.31695,-0.174339 -0.20454,-0.226021 -0.19988,-0.246891 0.0952,-0.440272 0.38609,-0.252979 0.32399,-0.55998 -0.17068,-0.843899 -0.24317,-0.139549 -0.36824,-0.310999 -0.36824,-0.504971 0,-0.256749 -0.10724,-0.19045 -0.8522,0.52695 -0.48675,0.46877 -1.08184,1.21362 -1.38745,1.736881 -0.29429,0.503891 -0.9135,1.295241 -1.37597,1.758619 -0.62897,0.630211 -0.88068,0.98547 -0.99944,1.409671 -0.12296,0.439129 -0.29018,0.66626 -0.7411,1.006279 -0.3203,0.241512 -0.75117,0.522322 -0.95745,0.624131 -0.36808,0.181679 -3.00606,0.473649 -4.26468,0.47176 -0.44966,-5.29e-4 -0.89391,0.114591 -1.49855,0.38875 -0.47263,0.214299 -1.09646,0.425259 -1.38648,0.468831 l -0.0149,0.003 c -0.80207,-0.892771 -1.14938,-1.378353 -1.14938,-1.593051 0,-0.173321 -0.0784,-0.26788 -0.2222,-0.26788 -0.12224,0 -0.34531,-0.0861 -0.49594,-0.19168 -0.21819,-0.152832 -0.25837,-0.270241 -0.19707,-0.576771 0.0109,-0.0546 0.0194,-0.0993 0.0261,-0.139189 0.15077,-0.125931 0.28091,-0.298501 0.40413,-0.52841 0.30944,-0.57735 0.27284,-1.097561 -0.1387,-1.971792 -0.23036,-0.489328 -0.26517,-0.714809 -0.19583,-1.269748 0.0748,-0.598591 0.0526,-0.70408 -0.19681,-0.936451 -0.15463,-0.144039 -0.3467,-0.26199 -0.42684,-0.26199 -0.63486,0 -1.38427,1.88305 -1.26878,3.188041 0.0341,0.38517 0.14191,0.954278 0.24662,1.322999 -0.50974,-0.542539 -1.15284,-1.545781 -1.34276,-2.199129 -0.15085,-0.518912 -0.2835,-0.71545 -0.61461,-0.9108 -0.29913,-0.17649 -0.48783,-0.426251 -0.64685,-0.85635 -0.12346,-0.333952 -0.2656,-0.663551 -0.31597,-0.732311 -0.0865,-0.11807 -0.15769,-0.68898 -0.12869,-1.03142 0.007,-0.086 0.0976,-0.156279 0.20072,-0.156279 0.3009,0 0.21733,-0.370591 -0.18753,-0.831702 -0.2304,-0.262408 -0.37506,-0.565589 -0.37506,-0.786018 0,-0.292312 -0.10266,-0.41904 -0.55431,-0.683721 -0.30493,-0.17871 -0.67448,-0.493559 -0.82119,-0.69959 -0.14669,-0.20602 -0.36735,-0.374581 -0.49031,-0.374581 -0.12936,0 -0.45493,-0.317788 -0.7726,-0.754028 -0.36319,-0.498721 -0.72918,-0.840981 -1.08076,-1.011172 -0.46288,-0.22407 -0.53159,-0.309618 -0.53159,-0.661979 0,-0.273709 -0.10461,-0.50287 -0.3233,-0.70789 -0.2843,-0.266549 -0.60286,-0.842029 -0.84024,-1.517611 -0.0496,-0.141329 -0.2084,-0.19541 -0.80653,-0.226848 -0.10908,-0.255021 -0.30217,-0.666552 -0.5316,-1.12372 -0.61516,-1.225841 -0.63403,-1.248021 -1.06659,-1.248021 -0.79007,0 -0.68963,-0.803385 0.14114,-1.129365 0.46747,-0.18342 0.5029,-0.28432 0.27177,-0.77407 -0.22763,-0.48234 -0.72455,-0.72205 -1.49758,-0.72205 -0.57758,0 -0.72247,0.0502 -0.99285,0.34382 -0.17409,0.18909 -0.44464,0.66816 -0.60118,1.06439 -0.15653,0.39625 -0.47402,0.95885 -0.70569,1.250234 -0.0957,0.120351 -0.18016,0.2334 -0.25127,0.332822 -1.57681,-0.124092 -3.61106,-0.232021 -4.94619,-0.236622 -0.66595,-0.003 -1.36049,-0.061 -1.54347,-0.130638 -0.26937,-0.102412 -1.29354,-0.843366 -1.55912,-1.128126 -0.0344,-0.0368 -0.51261,-0.42877 -1.06269,-0.87076 -0.55011,-0.44199 -1.02829,-0.83367 -1.0627,-0.87052 -0.0344,-0.0369 -0.3438,-0.29013 -0.68762,-0.56284 -0.34381,-0.27272 -0.65321,-0.52904 -0.68761,-0.56944 -0.0344,-0.0404 -0.48447,-0.40596 -1.00018,-0.81241 -0.51572,-0.40643 -1.41668,-1.13616 -2.00231,-1.62161 -0.58564,-0.48546 -1.28888,-1.01944 -1.56278,-1.18675 -0.27389,-0.16729 -0.51672,-0.34888 -0.53964,-0.40338 -0.0229,-0.0546 -0.0913,-0.0992 -0.15189,-0.0992 -0.0606,0 -0.59048,-0.3096 -1.17721,-0.6881 -0.58673,-0.37851 -1.70405,-1.01554 -2.4831,-1.41554 -1.46064,-0.74996 -1.91135,-0.90021 -3.96579,-1.32322 -0.0552,-0.0114 -0.10861,-0.0158 -0.16091,-0.013 z m 54.17612,34.318107 0.0206,0.0269 -0.0206,7.93e-4 z"
       id="path1044"
       inkscape:connector-curvature="0"
       inkscape:transform-center-x="0.71440699"
       inkscape:transform-center-y="-0.7141345" />
  </g>
</svg>
