<?xml version="1.0" encoding="UTF-8" standalone="no"?>
<!-- Created with Inkscape (http://www.inkscape.org/) -->

<svg
   xmlns:dc="http://purl.org/dc/elements/1.1/"
   xmlns:cc="http://creativecommons.org/ns#"
   xmlns:rdf="http://www.w3.org/1999/02/22-rdf-syntax-ns#"
   xmlns:svg="http://www.w3.org/2000/svg"
   xmlns="http://www.w3.org/2000/svg"
   xmlns:sodipodi="http://sodipodi.sourceforge.net/DTD/sodipodi-0.dtd"
   xmlns:inkscape="http://www.inkscape.org/namespaces/inkscape"
   width="105.83334mm"
   height="26.458334mm"
   viewBox="0 0 105.83332 26.458334"
   version="1.1"
   id="svg1092"
   inkscape:version="0.92.3 (2405546, 2018-03-11)"
   sodipodi:docname="ksaword.svg">
  <defs
     id="defs1086" />
  <sodipodi:namedview
     id="base"
     pagecolor="#ffffff"
     bordercolor="#666666"
     borderopacity="1.0"
     inkscape:pageopacity="0.0"
     inkscape:pageshadow="2"
     inkscape:zoom="0.98994949"
     inkscape:cx="85.86051"
     inkscape:cy="-25.028833"
     inkscape:document-units="mm"
     inkscape:current-layer="layer1"
     showgrid="false"
     fit-margin-top="0"
     fit-margin-left="0"
     fit-margin-right="0"
     fit-margin-bottom="0"
     inkscape:window-width="1680"
     inkscape:window-height="987"
     inkscape:window-x="-8"
     inkscape:window-y="-8"
     inkscape:window-maximized="1" />
  <metadata
     id="metadata1089">
    <rdf:RDF>
      <cc:Work
         rdf:about="">
        <dc:format>image/svg+xml</dc:format>
        <dc:type
           rdf:resource="http://purl.org/dc/dcmitype/StillImage" />
        <dc:title></dc:title>
      </cc:Work>
    </rdf:RDF>
  </metadata>
  <g
     inkscape:label="Layer 1"
     inkscape:groupmode="layer"
     id="layer1"
     transform="translate(128.97754,-14.381227)">
    <g
       aria-label="تلفزيون المملكة العربية السعودية"
       style="font-style:normal;font-variant:normal;font-weight:normal;font-stretch:normal;font-size:18.18979836px;line-height:1.25;font-family:Safeer;-inkscape-font-specification:Safeer;letter-spacing:0px;word-spacing:0px;fill:#cccccc;fill-opacity:1;stroke:none;stroke-width:0.09473854"
       id="text908"
       transform="matrix(0.59313713,-0.04643333,0.04613866,0.59607801,139.78846,-94.663049)">
      <path
         d="m -291.31076,167.24382 -3.94273,3.92021 -1.70335,-1.71313 3.3129,-3.29398 q -0.49512,-0.3594 -0.9721,-0.47382 -0.25729,-0.0698 -1.00449,-0.12848 l -0.98656,-1.99998 q 1.00467,0.0657 1.75712,0.48234 0.75874,0.4104 1.90475,1.56299 z m -6.79519,-6.63269 0.55987,1.87316 -1.39556,0.46075 0.48544,1.54636 -1.78505,0.49731 -0.5847,-1.97371 1.39534,-0.38538 -0.48558,-1.49612 z"
         style="font-style:normal;font-variant:normal;font-weight:bold;font-stretch:normal;font-family:'Arial Rounded MT Bold';-inkscape-font-specification:'Arial Rounded MT Bold, Bold';fill:#cccccc;stroke-width:0.09473854"
         id="path974"
         inkscape:connector-curvature="0" />
      <path
         d="m -294.68255,170.58341 -3.71031,3.17748 -1.57141,-1.83491 2.90079,-2.48422 -4.73902,-3.88149 -0.67439,0.0864 q -0.34086,-0.39802 -0.56606,-0.90677 -0.28392,-0.64557 -0.5195,-1.67165 l 0.44897,-0.10385 q 0.0347,0.0405 0.15789,0.23898 0.19065,0.22262 0.65308,0.1891 0.41136,-0.0249 1.15422,-0.26346 0.30903,0.48374 0.54001,0.99924 0.23773,0.50972 0.36663,0.96062 l -0.32374,0.11354 4.31143,3.54606 z"
         style="font-style:normal;font-variant:normal;font-weight:bold;font-stretch:normal;font-family:'Arial Rounded MT Bold';-inkscape-font-specification:'Arial Rounded MT Bold, Bold';fill:#cccccc;stroke-width:0.09473854"
         id="path977"
         inkscape:connector-curvature="0" />
      <path
         d="m -297.75294,173.2573 -5.25547,3.85746 -1.42946,-1.94753 1.2888,-0.94597 q 0.32936,-0.24175 0.64395,-0.42858 0.85067,-0.49217 1.93906,-1.12578 -1.24027,0.54677 -1.95366,0.47545 -0.71149,-0.0837 -1.25805,-0.82838 -0.81459,-1.1098 -0.95789,-2.37078 -0.14141,-1.27339 0.49584,-1.74112 0.72316,-0.5308 2.17986,0.32806 1.4586,0.84643 2.75668,2.61496 z m -3.15475,-2.25668 q -0.70973,-0.42657 -1.27703,-0.53901 -0.5673,-0.11245 -0.88234,0.11879 -0.1432,0.10511 -0.18228,0.27702 -0.0391,0.17191 0.0555,0.30079 0.22598,0.30788 0.89969,0.2651 0.67562,-0.0552 1.38644,-0.42269 z m -3.74304,-5.66997 0.318,2.23449 -2.3166,0.35624 -0.32136,-2.25407 z"
         style="font-style:normal;font-variant:normal;font-weight:bold;font-stretch:normal;font-family:'Arial Rounded MT Bold';-inkscape-font-specification:'Arial Rounded MT Bold, Bold';fill:#cccccc;stroke-width:0.09473854"
         id="path980"
         inkscape:connector-curvature="0" />
      <path
         d="m -302.20117,176.83192 q 0.27898,0.46444 0.20793,1.55357 -0.0756,1.08151 -0.45288,2.07483 -0.41681,1.09996 -0.98023,1.4384 -0.67001,0.40246 -1.66767,0.48369 -0.86666,0.0751 -2.8804,-0.0519 l 0.0362,-0.66414 q 0.95964,0.0452 1.47444,-0.0464 0.5148,-0.0916 1.00208,-0.38435 0.52535,-0.31556 0.87233,-0.92806 0.34699,-0.6125 0.76824,-1.9638 0.58702,-1.88602 0.22114,-2.49512 -0.18293,-0.30455 -0.72384,-0.65309 -0.61253,-0.39878 -1.23254,-0.53403 l -0.80846,-2.31183 q 0.83788,0.22197 1.53577,0.74561 0.69789,0.52363 1.2284,1.40683 z m -5.07605,-7.57084 0.11079,2.25429 -2.33957,0.1413 -0.11233,-2.27409 z"
         style="font-style:normal;font-variant:normal;font-weight:bold;font-stretch:normal;font-family:'Arial Rounded MT Bold';-inkscape-font-specification:'Arial Rounded MT Bold, Bold';fill:#cccccc;stroke-width:0.09473854"
         id="path983"
         inkscape:connector-curvature="0" />
      <path
         d="m -308.90902,180.55757 -4.97412,2.48423 -1.07941,-2.16128 4.17953,-2.08739 q -0.35726,-0.49667 -0.7742,-0.75504 -0.22237,-0.14706 -0.91337,-0.43734 l -0.30881,-2.20859 q 0.93325,0.37777 1.51685,1.00959 0.59155,0.62785 1.31777,2.08194 z m 0.5713,1.46197 -0.0565,1.95421 -1.46966,-6.7e-4 -0.0246,1.62058 -1.85093,-0.0882 0.0645,-2.05748 1.44579,0.0722 0.009,-1.57292 z"
         style="font-style:normal;font-variant:normal;font-weight:bold;font-stretch:normal;font-family:'Arial Rounded MT Bold';-inkscape-font-specification:'Arial Rounded MT Bold, Bold';fill:#cccccc;stroke-width:0.09473854"
         id="path986"
         inkscape:connector-curvature="0" />
      <path
         d="m -313.37165,182.16865 q 0.58337,1.41189 -0.0453,3.28612 -0.62867,1.87424 -1.7943,2.35585 -0.68132,0.28151 -1.67373,0.18222 -0.9842,-0.10268 -3.18787,-0.69133 l 0.14805,-0.61855 q 1.13073,0.22472 1.77853,0.18771 0.53573,-0.0291 1.12675,-0.27335 0.79624,-0.32899 1.39291,-1.09446 0.70231,-0.90522 1.20573,-2.47785 -0.32441,0.1917 -0.55425,0.28667 -0.81266,0.33577 -1.51404,0.0105 -0.69656,-0.33684 -1.07303,-1.248 -0.50874,-1.2313 -0.41379,-2.60633 0.10352,-1.49388 0.89155,-1.81948 0.65669,-0.27133 1.48606,0.43348 0.82938,0.70482 1.35169,1.96895 z m -1.67354,-1.25936 q -0.7759,-1.22663 -1.48184,-0.93494 -0.25447,0.10514 -0.32564,0.37479 -0.0664,0.25806 0.032,0.49611 0.1221,0.29551 0.52364,0.36025 0.40635,0.0531 0.93991,-0.16733 z"
         style="font-style:normal;font-variant:normal;font-weight:bold;font-stretch:normal;font-family:'Arial Rounded MT Bold';-inkscape-font-specification:'Arial Rounded MT Bold, Bold';fill:#cccccc;stroke-width:0.09473854"
         id="path989"
         inkscape:connector-curvature="0" />
      <path
         d="m -320.63933,185.39933 q 0.3678,1.16919 0.36292,1.95284 -0.008,0.77517 -0.3969,1.3725 -0.38089,0.59468 -1.30382,1.18295 -0.9118,0.59409 -1.97932,0.92991 -2.0588,0.64764 -3.41436,0.24541 -1.34443,-0.39643 -1.77886,-1.77744 -0.37047,-1.17766 -0.32112,-2.26393 0.0513,-1.1986 0.64551,-3.27564 l 0.62028,0.19593 q -0.38834,1.6957 -0.44843,2.42222 -0.0516,0.72386 0.16426,1.41013 0.27985,0.8896 1.40733,1.15875 1.13329,0.25801 2.68374,-0.22972 1.52504,-0.47974 2.38325,-1.39216 0.8582,-0.91242 0.59168,-1.75966 -0.16524,-0.52529 -0.51421,-0.98348 -0.3405,-0.46084 -1.29918,-1.40692 l 0.026,-2.52209 q 0.93155,0.88943 1.19504,1.25347 0.48605,0.65714 0.84319,1.79244 z m -4.88495,-5.79094 -0.41968,2.21765 -2.3077,-0.40998 0.42282,-2.23725 z"
         style="font-style:normal;font-variant:normal;font-weight:bold;font-stretch:normal;font-family:'Arial Rounded MT Bold';-inkscape-font-specification:'Arial Rounded MT Bold, Bold';fill:#cccccc;stroke-width:0.09473854"
         id="path992"
         inkscape:connector-curvature="0" />
      <path
         d="m -335.74559,187.42103 q 0.16177,0.77375 0.1137,1.45526 -0.0499,0.67281 -0.34612,1.8599 l -0.56525,-0.0996 q -0.024,-1.15642 -0.16942,-1.85192 -0.11087,-0.53032 -0.41229,-1.53801 -0.30142,-1.00768 -0.64085,-1.9802 -0.34125,-0.98121 -0.92766,-2.31042 -0.20612,-0.46504 -0.24429,-0.6476 -0.0563,-0.26951 0.0787,-0.9692 0.13318,-0.70837 0.42736,-1.7317 l 1.16507,2.96853 q 0.65406,1.69616 1.03609,2.95921 0.29414,0.97291 0.485,1.88575 z"
         style="font-style:normal;font-variant:normal;font-weight:bold;font-stretch:normal;font-family:'Arial Rounded MT Bold';-inkscape-font-specification:'Arial Rounded MT Bold, Bold';fill:#cccccc;stroke-width:0.09473854"
         id="path995"
         inkscape:connector-curvature="0" />
      <path
         d="m -338.35747,190.61023 -4.80929,0.85644 -0.42355,-2.37842 3.75999,-0.66958 -2.11536,-5.74887 -0.62502,-0.2676 q -0.0919,-0.5159 -0.0279,-1.06858 0.0828,-0.70037 0.4002,-1.70416 l 0.4396,0.13823 q 0.009,0.0525 0.0148,0.28605 0.0514,0.28855 0.46692,0.49422 0.36713,0.18722 1.12835,0.3584 0.021,0.57364 -0.0414,1.13506 -0.0537,0.55987 -0.1713,1.01384 l -0.33659,-0.0664 1.917,5.24291 z"
         style="font-style:normal;font-variant:normal;font-weight:bold;font-stretch:normal;font-family:'Arial Rounded MT Bold';-inkscape-font-specification:'Arial Rounded MT Bold, Bold';fill:#cccccc;stroke-width:0.09473854"
         id="path998"
         inkscape:connector-curvature="0" />
      <path
         d="m -342.46749,191.36528 q -0.92393,0.12676 -2.22293,-0.0626 -1.14337,-0.16587 -2.03846,-0.48235 -0.40533,0.83556 -1.12068,1.17575 -0.34507,0.16389 -0.96983,0.2496 l -1.74226,0.23903 -0.32836,-2.39341 1.74226,-0.23903 q 0.79194,-0.10865 1.23174,-0.36622 0.56455,-0.32847 0.71004,-0.96701 0.34824,-1.18633 1.03238,-2.01531 0.60702,-0.73772 1.09098,-0.80412 0.44877,-0.0616 1.29463,1.20298 0.89192,1.33892 1.05731,2.54442 z m -2.01005,-2.43164 q -0.0266,-0.19358 -0.47012,-0.61683 -0.4948,-0.47001 -0.80278,-0.42776 -0.34317,0.0471 -0.4721,0.87161 0.4817,0.11321 0.73136,0.16861 0.74896,0.1662 0.83695,0.15412 0.19359,-0.0266 0.17669,-0.14975 z"
         style="font-style:normal;font-variant:normal;font-weight:bold;font-stretch:normal;font-family:'Arial Rounded MT Bold';-inkscape-font-specification:'Arial Rounded MT Bold, Bold';fill:#cccccc;stroke-width:0.09473854"
         id="path1001"
         inkscape:connector-curvature="0" />
      <path
         d="m -349.84486,192.37466 q -0.92883,0.0836 -2.21761,-0.16596 -1.13442,-0.21889 -2.01381,-0.57668 -0.44377,0.8158 -1.17417,1.12234 -0.35233,0.14765 -0.9804,0.2042 l -1.75149,0.1577 -0.21665,-2.4061 1.7515,-0.1577 q 0.79614,-0.0717 1.24745,-0.30851 0.57922,-0.30184 0.75426,-0.93292 0.40307,-1.16884 1.12505,-1.96509 0.64069,-0.70868 1.12721,-0.75248 0.45115,-0.0406 1.23725,1.26192 0.82866,1.37897 0.93777,2.59086 z m -1.89473,-2.52254 q -0.0175,-0.19461 -0.44091,-0.63804 -0.4724,-0.49253 -0.782,-0.46465 -0.345,0.0311 -0.51215,0.8487 0.47591,0.1355 0.72272,0.20246 0.74042,0.20086 0.82888,0.1929 0.19461,-0.0175 0.18346,-0.14137 z"
         style="font-style:normal;font-variant:normal;font-weight:bold;font-stretch:normal;font-family:'Arial Rounded MT Bold';-inkscape-font-specification:'Arial Rounded MT Bold, Bold';fill:#cccccc;stroke-width:0.09473854"
         id="path1004"
         inkscape:connector-curvature="0" />
      <path
         d="m -357.28113,193.02487 -4.87714,0.27608 -0.13654,-2.41198 3.81304,-0.21584 -1.4138,-5.96032 -0.5886,-0.34031 q -0.0296,-0.52319 0.0999,-1.06428 0.1658,-0.68547 0.60081,-1.64417 l 0.41995,0.18973 q 0.003,0.0532 -0.0194,0.28577 0.0166,0.29262 0.40456,0.54644 0.34215,0.22971 1.07749,0.49055 -0.0477,0.57204 -0.17668,1.122 -0.12013,0.54945 -0.29112,0.98614 l -0.32626,-0.10608 1.27728,5.4343 z"
         style="font-style:normal;font-variant:normal;font-weight:bold;font-stretch:normal;font-family:'Arial Rounded MT Bold';-inkscape-font-specification:'Arial Rounded MT Bold, Bold';fill:#cccccc;stroke-width:0.09473854"
         id="path1007"
         inkscape:connector-curvature="0" />
      <path
         d="m -361.47993,193.27791 -7.17353,0.20453 -0.0688,-2.41485 5.76191,-0.16428 q -0.35815,-0.4074 -0.6955,-0.70877 -0.27343,-0.241 -0.73634,-0.58321 -0.51719,-0.37621 -1.0255,-0.75267 l -0.27499,0.32771 q -0.81243,-0.75875 -0.96817,-0.92313 -0.45833,-0.4934 -0.47706,-1.15038 -0.0256,-0.89669 0.0884,-1.26424 0.16288,-0.51999 0.72856,-0.93596 0.50481,-0.36981 1.08241,-0.67949 0.45509,-0.244 1.20975,-0.5765 0.35107,-0.15217 1.48369,-0.62873 l 0.0602,2.11299 q -0.0444,0.001 -0.73918,0.25209 -0.86196,0.30891 -1.37082,0.53667 -0.73715,0.32312 -0.73285,0.47404 0.002,0.0799 0.65009,0.67453 0.88497,0.80999 1.49067,1.48578 1.00037,1.11768 1.63649,2.23687 z"
         style="font-style:normal;font-variant:normal;font-weight:bold;font-stretch:normal;font-family:'Arial Rounded MT Bold';-inkscape-font-specification:'Arial Rounded MT Bold, Bold';fill:#cccccc;stroke-width:0.09473854"
         id="path1010"
         inkscape:connector-curvature="0" />
      <path
         d="m -369.94635,181.00658 -0.98587,1.64672 -1.25736,-0.71732 -0.71809,1.39947 -1.6471,-0.91482 0.9321,-1.55819 1.31094,0.66432 0.78002,-1.35473 z m 1.98461,12.46306 -1.16349,-0.006 q -0.31974,-0.002 -0.58547,-0.13638 -0.51374,-0.26034 -0.86533,-0.94614 -0.47454,-0.94403 -0.60784,-2.57901 -0.60797,0.7428 -0.94714,1.05184 -0.49093,0.45033 -0.81955,0.44857 -0.16875,-9.1e-4 -0.42603,-0.0556 l -1.08241,-0.21899 q -0.692,-0.14584 -0.85153,-0.20887 -0.15954,-0.063 -0.15868,-0.2229 10e-4,-0.2398 0.62096,-1.50657 0.6286,-1.27561 0.90556,-1.5761 0.22333,-0.23861 0.79381,-0.61746 0.33874,-0.2291 0.96241,-0.5899 l 0.47221,-0.2728 q -0.026,-0.12448 -0.0431,-0.24892 -0.008,-0.13327 -0.008,-0.24873 0.002,-0.33751 0.15553,-0.84294 0.16264,-0.51428 0.56638,-1.26706 l 0.8228,5.54671 q 0.19724,1.3067 0.52338,1.77031 0.21153,0.30312 0.58456,0.30513 l 1.16349,0.006 z m -3.42793,-5.03671 -0.17189,-1.06675 q -0.28493,0.1317 -0.44523,0.21077 -0.48987,0.25494 -0.78416,0.4754 -0.21412,0.17649 -0.35704,0.32671 -0.17868,0.19444 -0.17921,0.29214 -6.7e-4,0.12434 0.30981,0.19706 0.31047,0.0727 0.61245,0.0744 0.19539,0.001 0.40912,-0.10438 0.21378,-0.11432 0.60615,-0.40531 z"
         style="font-style:normal;font-variant:normal;font-weight:bold;font-stretch:normal;font-family:'Arial Rounded MT Bold';-inkscape-font-specification:'Arial Rounded MT Bold, Bold';fill:#cccccc;stroke-width:0.09473854"
         id="path1013"
         inkscape:connector-curvature="0" />
      <path
         d="m -380.93021,190.61538 q -0.0453,0.78917 -0.26927,1.43464 -0.22341,0.63659 -0.81863,1.70554 l -0.51979,-0.24339 q 0.27803,-1.12275 0.3188,-1.83212 0.0311,-0.5409 0.003,-1.59231 -0.0285,-1.05142 -0.10295,-2.07878 -0.0739,-1.03623 -0.29384,-2.47229 -0.0779,-0.50267 -0.0672,-0.68888 0.0158,-0.27488 0.32838,-0.91525 0.3131,-0.64924 0.86368,-1.56061 l 0.35163,3.16953 q 0.18968,1.80797 0.22954,3.12693 0.0306,1.01594 -0.0229,1.94699 z"
         style="font-style:normal;font-variant:normal;font-weight:bold;font-stretch:normal;font-family:'Arial Rounded MT Bold';-inkscape-font-specification:'Arial Rounded MT Bold, Bold';fill:#cccccc;stroke-width:0.09473854"
         id="path1015"
         inkscape:connector-curvature="0" />
      <path
         d="m -384.30353,193.01323 -4.86974,-0.3852 0.1905,-2.40831 3.80725,0.30116 -0.59579,-6.09667 -0.53724,-0.41669 q 0.0413,-0.52239 0.24271,-1.04103 0.25688,-0.6568 0.81739,-1.54796 l 0.39048,0.24472 q -0.004,0.0531 -0.0578,0.28053 -0.0231,0.29218 0.32705,0.59607 0.30799,0.27383 1.00136,0.6316 -0.12451,0.56036 -0.32661,1.08785 -0.19324,0.52819 -0.42165,0.93778 l -0.30894,-0.14917 0.53156,5.55701 z"
         style="font-style:normal;font-variant:normal;font-weight:bold;font-stretch:normal;font-family:'Arial Rounded MT Bold';-inkscape-font-specification:'Arial Rounded MT Bold, Bold';fill:#cccccc;stroke-width:0.09473854"
         id="path1018"
         inkscape:connector-curvature="0" />
      <path
         d="m -388.49538,192.70116 -1.30667,-0.14316 q -0.69749,-0.0764 -1.19627,-0.41698 -0.49878,-0.34056 -0.75677,-1.0032 -0.65126,0.64344 -1.60139,0.8342 -0.63048,0.12749 -1.34562,0.0491 l -0.92703,-0.10157 0.2631,-2.40146 0.92703,0.10157 q 0.7328,0.0803 1.0319,0.0416 0.30888,-0.0466 0.84115,-0.25631 -0.2078,-0.54992 -0.37688,-0.80075 -0.2084,-0.29981 -0.46444,-0.32787 -0.0971,-0.0106 -0.19314,0.0503 -0.0862,0.0531 -0.21249,0.2269 l -0.38267,-0.0955 q 0.17508,-1.59803 0.79695,-2.21788 0.63167,-0.62772 1.82357,-0.49713 1.22722,0.13445 1.8715,0.69646 0.65408,0.55414 0.56219,1.39289 -0.0493,0.45027 -0.2802,0.84492 -0.2299,0.38581 -0.81936,1.03602 0.10522,0.18129 0.30648,0.30163 0.20125,0.12033 0.39549,0.14161 l 1.30668,0.14316 z"
         style="font-style:normal;font-variant:normal;font-weight:bold;font-stretch:normal;font-family:'Arial Rounded MT Bold';-inkscape-font-specification:'Arial Rounded MT Bold, Bold';fill:#cccccc;stroke-width:0.09473854"
         id="path1020"
         inkscape:connector-curvature="0" />
      <path
         d="m -394.95109,192.21881 q -0.0824,0.53549 -0.83328,1.32758 -0.74954,0.7833 -1.67466,1.30596 -1.0237,0.57937 -1.67331,0.47943 -0.7725,-0.11885 -1.5916,-0.69417 -0.71443,-0.49633 -2.18178,-1.8813 l 0.45243,-0.48754 q 0.70903,0.64826 1.16348,0.90688 0.45445,0.25863 1.01628,0.34507 0.60571,0.0932 1.26409,-0.15599 0.65839,-0.24917 1.84618,-1.01897 1.65711,-1.07502 1.76515,-1.7773 0.054,-0.35114 -0.1391,-0.96495 -0.21608,-0.69823 -0.60639,-1.1986 l 0.85624,-2.29455 q 0.5024,0.70633 0.7043,1.55514 0.20191,0.84881 0.0452,1.86711 z"
         style="font-style:normal;font-variant:normal;font-weight:bold;font-stretch:normal;font-family:'Arial Rounded MT Bold';-inkscape-font-specification:'Arial Rounded MT Bold, Bold';fill:#cccccc;stroke-width:0.09473854"
         id="path1022"
         inkscape:connector-curvature="0" />
      <path
         d="m -402.58476,190.81162 -5.45509,-1.07482 0.46702,-2.37026 4.58367,0.90312 q 0.0209,-0.61145 -0.15112,-1.07081 -0.0861,-0.25233 -0.45547,-0.90447 l 1.10578,-1.93662 q 0.50762,0.86948 0.58323,1.72626 0.0843,0.85849 -0.22989,2.45319 z m -1.23726,1.63914 -1.4303,1.74594 -1.82966,-1.4649 1.44246,-1.76165 z"
         style="font-style:normal;font-variant:normal;font-weight:bold;font-stretch:normal;font-family:'Arial Rounded MT Bold';-inkscape-font-specification:'Arial Rounded MT Bold, Bold';fill:#cccccc;stroke-width:0.09473854"
         id="path1024"
         inkscape:connector-curvature="0" />
      <path
         d="m -407.34323,189.87703 -5.41439,-1.26396 0.5492,-2.35258 4.54947,1.06205 q 0.0422,-0.61035 -0.11377,-1.07542 -0.0772,-0.25516 -0.42372,-0.91976 l 1.17248,-1.89698 q 0.47707,0.88661 0.52282,1.74551 0.0544,0.8609 -0.3151,2.44371 z m -0.49375,1.48996 -1.29122,1.46795 -1.13067,-0.93887 -1.05362,1.23156 -1.36821,-1.24969 1.36331,-1.54233 1.06666,0.97865 1.01095,-1.20505 z"
         style="font-style:normal;font-variant:normal;font-weight:bold;font-stretch:normal;font-family:'Arial Rounded MT Bold';-inkscape-font-specification:'Arial Rounded MT Bold, Bold';fill:#cccccc;stroke-width:0.09473854"
         id="path1026"
         inkscape:connector-curvature="0" />
      <path
         d="m -410.62907,176.27465 -1.39137,1.32202 -1.01894,-1.02824 -1.06708,1.15564 -1.34144,-1.32302 1.31583,-1.25115 1.08477,0.99154 1.11474,-1.09592 z m -1.43037,12.53877 -1.11919,-0.31805 q -0.30756,-0.0874 -0.52745,-0.2884 -0.42511,-0.38857 -0.5799,-1.14354 -0.20399,-1.03671 0.10604,-2.64755 -0.78489,0.55255 -1.19452,0.75931 -0.59371,0.30219 -0.90982,0.21236 -0.16233,-0.0461 -0.39552,-0.1678 l -0.98403,-0.50125 q -0.62754,-0.32607 -0.76433,-0.42958 -0.13679,-0.1035 -0.0931,-0.25729 0.0656,-0.23067 1.00224,-1.28486 0.94766,-1.0603 1.29506,-1.27552 0.27914,-0.16997 0.93032,-0.38196 0.38777,-0.12987 1.08536,-0.31019 l 0.52807,-0.13617 q 0.008,-0.1269 0.0253,-0.25136 0.0279,-0.13058 0.0594,-0.24164 0.0923,-0.32466 0.37589,-0.77036 0.2946,-0.45182 0.88542,-1.06875 l -0.69483,5.56419 q -0.1604,1.31173 0.0295,1.84582 0.12249,0.34875 0.48132,0.45072 l 1.11919,0.31805 z m -1.95164,-5.7715 0.12048,-1.07377 q -0.30981,0.0505 -0.48545,0.0836 -0.5403,0.11422 -0.88293,0.24769 -0.2536,0.1126 -0.43157,0.21899 -0.22428,0.1394 -0.25099,0.23338 -0.034,0.1196 0.24561,0.27293 0.2796,0.15332 0.57008,0.23587 0.18795,0.0534 0.42213,0.009 0.2366,-0.0528 0.69264,-0.2279 z"
         style="font-style:normal;font-variant:normal;font-weight:bold;font-stretch:normal;font-family:'Arial Rounded MT Bold';-inkscape-font-specification:'Arial Rounded MT Bold, Bold';fill:#cccccc;stroke-width:0.09473854"
         id="path1028"
         inkscape:connector-curvature="0" />
      <path
         d="m -423.5421,182.51167 q -0.28464,0.73746 -0.6953,1.28346 -0.40747,0.53771 -1.3012,1.37328 l -0.4204,-0.39075 q 0.60822,-0.98385 0.86407,-1.64672 0.19509,-0.50545 0.48961,-1.51517 0.29452,-1.00973 0.53801,-2.01059 0.24669,-1.00914 0.47667,-2.44363 0.0797,-0.50239 0.14682,-0.6764 0.0992,-0.25686 0.59267,-0.77088 0.49673,-0.52231 1.29974,-1.22153 l -0.63498,3.12512 q -0.37258,1.77931 -0.73818,3.04721 -0.28173,0.97658 -0.61753,1.8466 z"
         style="font-style:normal;font-variant:normal;font-weight:bold;font-stretch:normal;font-family:'Arial Rounded MT Bold';-inkscape-font-specification:'Arial Rounded MT Bold, Bold';fill:#cccccc;stroke-width:0.09473854"
         id="path1030"
         inkscape:connector-curvature="0" />
      <path
         d="m -427.4486,183.78078 -4.48633,-1.93277 0.95584,-2.21869 3.5075,1.51107 1.3991,-5.96379 -0.37446,-0.5675 q 0.20734,-0.48126 0.56501,-0.90742 0.45468,-0.53911 1.2723,-1.20231 l 0.29088,0.35741 q -0.0211,0.049 -0.14508,0.24697 -0.11596,0.26918 0.11769,0.66964 0.20341,0.35842 0.74465,0.9204 -0.29832,0.49042 -0.65951,0.92474 -0.35303,0.43784 -0.70116,0.75206 l -0.24445,-0.24071 -1.28614,5.43221 z"
         style="font-style:normal;font-variant:normal;font-weight:bold;font-stretch:normal;font-family:'Arial Rounded MT Bold';-inkscape-font-specification:'Arial Rounded MT Bold, Bold';fill:#cccccc;stroke-width:0.09473854"
         id="path1032"
         inkscape:connector-curvature="0" />
      <path
         d="m -431.2603,182.29999 q -0.87998,-0.46387 -1.39512,-0.89608 -0.51514,-0.4322 -0.93588,-1.0054 -0.62551,0.0819 -1.04077,-0.006 -0.40741,-0.0842 -1.12239,-0.46114 l -1.28067,-0.67511 q -0.52641,-0.2775 -0.68787,-0.71402 -0.16146,-0.43652 -0.0695,-1.20132 -0.78004,0.43218 -1.46341,0.43339 -0.5841,0.003 -1.22051,-0.33214 l -1.12353,-0.59228 1.12656,-2.13708 1.12353,0.59228 q 0.82498,0.43488 1.61933,0.26125 1.03389,-0.22808 1.68415,-1.46161 l 0.47714,0.35192 q -0.14825,0.24314 -0.33378,0.55699 -0.18552,0.31385 -0.39261,0.70669 -0.21123,0.40071 -0.0771,0.8128 0.13417,0.4121 0.48773,0.59848 l 0.9664,0.50944 q 0.95854,0.50529 1.50792,0.45353 0.6648,-0.0612 1.12868,-0.94118 0.0994,-0.18856 0.29595,-0.27572 0.11627,-0.0491 0.42738,-0.10603 l 0.42282,-0.0783 q -0.063,0.15757 -0.1918,0.42099 -0.12468,0.25556 -0.1661,0.33413 -0.2278,0.43213 -0.73041,1.08084 0.21615,0.29467 0.52373,0.58733 0.30757,0.29266 0.67928,0.55889 0.14082,-0.26714 0.16806,-0.79495 0.0272,-0.52782 0.10592,-0.6771 0.10769,-0.20428 0.22067,-0.28529 0.0364,-0.031 0.30125,-0.15244 l 1.14414,-0.55149 q -0.0488,0.60681 -0.17774,1.06093 -0.11695,0.4504 -0.43586,1.05538 z"
         style="font-style:normal;font-variant:normal;font-weight:bold;font-stretch:normal;font-family:'Arial Rounded MT Bold';-inkscape-font-specification:'Arial Rounded MT Bold, Bold';fill:#cccccc;stroke-width:0.09473854"
         id="path1034"
         inkscape:connector-curvature="0" />
      <path
         d="m -440.79753,177.17308 -1.09621,-0.72541 q -0.58514,-0.38722 -0.8727,-0.91832 -0.28756,-0.53111 -0.21361,-1.23835 -0.87356,0.27396 -1.80562,0.009 -0.6189,-0.17525 -1.21886,-0.57227 l -0.77771,-0.51465 1.33319,-2.01465 0.77772,0.51465 q 0.61476,0.40682 0.8984,0.50931 0.29595,0.1 0.86518,0.15717 0.067,-0.58405 0.0315,-0.88446 -0.048,-0.36195 -0.26284,-0.50409 -0.0815,-0.0539 -0.19476,-0.0437 -0.10097,0.008 -0.29278,0.10446 l -0.29649,-0.2601 q 0.88716,-1.34064 1.72379,-1.60707 0.84895,-0.26894 1.84887,0.39275 1.02955,0.6813 1.34511,1.47589 0.32787,0.79209 -0.13777,1.49574 -0.24998,0.37774 -0.63589,0.62293 -0.38101,0.23779 -1.20272,0.54605 0.0106,0.20935 0.13442,0.40846 0.12385,0.19911 0.2868,0.30694 l 1.09621,0.72542 z"
         style="font-style:normal;font-variant:normal;font-weight:bold;font-stretch:normal;font-family:'Arial Rounded MT Bold';-inkscape-font-specification:'Arial Rounded MT Bold, Bold';fill:#cccccc;stroke-width:0.09473854"
         id="path1036"
         inkscape:connector-curvature="0" />
      <path
         d="m -445.7154,173.25758 q -0.95872,1.18936 -2.90472,1.53727 -1.94601,0.34791 -2.92793,-0.4436 -0.57394,-0.46264 -0.96309,-1.38095 -0.38224,-0.91274 -0.92335,-3.12856 l 0.61372,-0.16696 q 0.34548,1.09987 0.68884,1.65043 0.28267,0.45601 0.78054,0.85734 0.67075,0.54067 1.62866,0.69679 1.13121,0.18173 2.7525,-0.13131 -0.32387,-0.19262 -0.51749,-0.34869 -0.68457,-0.55182 -0.73582,-1.32324 -0.0388,-0.77276 0.57995,-1.54031 0.8361,-1.03724 2.08801,-1.61381 1.36029,-0.62611 2.02412,-0.091 0.55319,0.44592 0.33287,1.51179 -0.22033,1.06587 -1.07872,2.13077 z m 0.30173,-2.07261 q 0.70379,-1.26937 0.10911,-1.74873 -0.21436,-0.1728 -0.4851,-0.10583 -0.25824,0.0656 -0.41989,0.26616 -0.20066,0.24894 -0.0648,0.63228 0.14839,0.382 0.59786,0.74431 z"
         style="font-style:normal;font-variant:normal;font-weight:bold;font-stretch:normal;font-family:'Arial Rounded MT Bold';-inkscape-font-specification:'Arial Rounded MT Bold, Bold';fill:#cccccc;stroke-width:0.09473854"
         id="path1038"
         inkscape:connector-curvature="0" />
      <path
         d="m -452.28186,168.71706 -2.8576,-2.83232 q -0.41634,-0.41266 -0.46206,-0.80812 -0.0587,-0.48333 0.42276,-0.96906 0.2751,-0.27756 0.6192,-0.57427 0.35042,-0.29046 0.73231,-0.56221 l 0.25222,0.22497 q -0.16837,0.27081 -0.0981,0.54055 0.0766,0.276 0.32261,0.51984 l 2.17002,2.15082 q 0.77401,-1.07111 0.96465,-1.98262 0.15994,-0.75435 -0.0386,-1.61389 l 2.40493,-1.51798 q 0.21358,1.4247 -0.40239,2.72748 -0.56618,1.20207 -2.02298,2.67188 z"
         style="font-style:normal;font-variant:normal;font-weight:bold;font-stretch:normal;font-family:'Arial Rounded MT Bold';-inkscape-font-specification:'Arial Rounded MT Bold, Bold';fill:#cccccc;stroke-width:0.09473854"
         id="path1040"
         inkscape:connector-curvature="0" />
      <path
         d="m -456.5387,164.48313 -3.57941,-4.25454 1.84862,-1.55527 3.00761,3.5749 q 0.39926,-0.46358 0.55287,-0.92941 0.0909,-0.25061 0.21142,-0.99036 l 2.07498,-0.81715 q -0.14886,0.99575 -0.62654,1.71102 -0.47196,0.72206 -1.7157,1.76844 z m -1.28765,0.89761 -1.91316,0.40245 -0.34332,-1.42899 -1.58132,0.3554 -0.34743,-1.82017 2.01544,-0.41885 0.26823,1.42252 1.53126,-0.35972 z"
         style="font-style:normal;font-variant:normal;font-weight:bold;font-stretch:normal;font-family:'Arial Rounded MT Bold';-inkscape-font-specification:'Arial Rounded MT Bold, Bold';fill:#cccccc;stroke-width:0.09473854"
         id="path1042"
         inkscape:connector-curvature="0" />
      <path
         d="m -450.29447,152.50505 -1.91765,0.079 -0.09,-1.44479 -1.56403,0.16731 -0.13865,-1.879 1.81413,-0.0754 0.1637,1.4605 1.56058,-0.091 z m -9.33179,8.49613 -0.63301,-0.97624 q -0.17396,-0.26828 -0.20714,-0.56433 -0.0641,-0.57236 0.31639,-1.24252 0.529,-0.91463 1.82289,-1.92298 -0.95457,-0.10085 -1.39902,-0.21491 -0.64583,-0.16344 -0.82462,-0.43917 -0.0918,-0.14159 -0.18723,-0.3867 l -0.41067,-1.02514 q -0.25767,-0.65859 -0.29248,-0.82655 -0.0348,-0.16797 0.0993,-0.25495 0.20121,-0.13046 1.6003,-0.30726 1.41137,-0.17417 1.81454,-0.10745 0.32201,0.0558 0.95172,0.325 0.37738,0.15755 1.02117,0.48109 l 0.48712,0.24517 q 0.0898,-0.09 0.1845,-0.17256 0.10695,-0.0799 0.20383,-0.14275 0.28319,-0.18363 0.79011,-0.33237 0.51921,-0.14613 1.37009,-0.22151 l -4.1863,3.73068 q -0.98433,0.88172 -1.19306,1.40873 -0.1374,0.34314 0.0656,0.65614 l 0.63301,0.97624 z m 2.3308,-5.62908 0.79763,-0.7289 q -0.26642,-0.16599 -0.42046,-0.25664 -0.48189,-0.26974 -0.82765,-0.39486 -0.26502,-0.0822 -0.46902,-0.1193 -0.26059,-0.0427 -0.34257,0.0104 -0.10433,0.0676 0.005,0.36713 0.10951,0.29949 0.2738,0.55286 0.10631,0.16395 0.3117,0.28482 0.21285,0.11604 0.67139,0.28447 z"
         style="font-style:normal;font-variant:normal;font-weight:bold;font-stretch:normal;font-family:'Arial Rounded MT Bold';-inkscape-font-specification:'Arial Rounded MT Bold, Bold';fill:#cccccc;stroke-width:0.09473854"
         id="path1045"
         inkscape:connector-curvature="0" />
    </g>
  </g>
</svg>
